Coordinates
version=1
nRows=9
nColumns=63
inDegrees=yes

Units are S.I. units (second, meters, Newtons, ...)
If the header above contains a line with 'inDegrees', this indicates whether rotational values are in degrees (yes) or radians (no).

endheader
time	pelvis_tilt	pelvis_list	pelvis_rotation	pelvis_tx	pelvis_ty	pelvis_tz	hip_flexion_r	hip_adduction_r	hip_rotation_r	knee_angle_r	knee_angle_r_beta	ankle_angle_r	subtalar_angle_r	mtp_angle_r	hip_flexion_l	hip_adduction_l	hip_rotation_l	knee_angle_l	knee_angle_l_beta	ankle_angle_l	subtalar_angle_l	mtp_angle_l	L5_S1_Flex_Ext	L5_S1_Lat_Bending	L5_S1_axial_rotation	L4_L5_Flex_Ext	L4_L5_Lat_Bending	L4_L5_axial_rotation	L3_L4_Flex_Ext	L3_L4_Lat_Bending	L3_L4_axial_rotation	L2_L3_Flex_Ext	L2_L3_Lat_Bending	L2_L3_axial_rotation	L1_L2_Flex_Ext	L1_L2_Lat_Bending	L1_L2_axial_rotation	L1_T12_Flex_Ext	L1_T12_Lat_Bending	L1_T12_axial_rotation	Abs_r3	Abs_r2	Abs_r1	Abs_t1	Abs_t2	neck_flexion	neck_bending	neck_rotation	arm_flex_r	arm_add_r	arm_rot_r	elbow_flex_r	pro_sup_r	wrist_flex_r	wrist_dev_r	arm_flex_l	arm_add_l	arm_rot_l	elbow_flex_l	pro_sup_l	wrist_flex_l	wrist_dev_l
      1.38000000	     -0.90745096	      2.37815892	     91.03736217	      0.20276410	      0.64217642	      0.71353873	      2.07231724	     -1.62058339	    -18.45278476	     10.73549122	      0.18736967	     14.60417457	     15.69758507	      0.00000000	      1.24173204	      1.59609671	     -7.46755325	      4.26499738	      0.07443825	     11.40345358	     -1.49670218	      0.00000000	     -0.35672144	     -0.21462621	     -6.37657280	     -0.66246739	     -0.28545286	     -6.77510861	     -0.58605765	     -0.52184217	     -6.77510861	     -0.40769693	     -0.52184217	     -5.57950120	     -0.33125153	     -0.43766577	     -5.18096540	     -0.20383063	     -0.33245600	     -4.78242960	     -2.54802557	     -2.42789465	    -35.46458497	      0.00000000	      0.00000000	     -5.57299586	      4.16505367	     25.21694990	     82.40539659	      6.44505497	    167.12236647	      0.09116875	      1.57368520	    -69.71628123	    -23.96896641	    -17.14369953	    -18.77735955	     -4.20853580	     27.42598758	     81.54050982	     -6.64195910	      4.58948437
      1.40000000	     -0.25368513	      2.40565975	     90.93468100	      0.20017827	      0.64090621	      0.71197839	      2.03672843	     -1.12990335	    -18.32986054	     11.00001767	      0.19198653	     14.98987113	     15.73521769	      0.00000000	      1.12854595	      1.07948392	     -7.31206603	      4.31389990	      0.07529176	     12.24266302	     -1.68586547	      0.00000000	     -0.37197635	     -0.06988779	     -6.45555268	     -0.69079727	     -0.09295076	     -6.85902472	     -0.61111994	     -0.16992517	     -6.85902472	     -0.42513177	     -0.16992517	     -5.64860859	     -0.34541724	     -0.14251518	     -5.24513655	     -0.21254728	     -0.10825619	     -4.84166451	     -2.65698984	     -0.79058466	    -35.90384732	      0.00000000	      0.00000000	     -4.70144004	      3.02325142	     26.75178336	     88.61510480	      6.68736986	    166.55608489	      0.08465607	      1.66309688	    -69.73111371	    -24.17213794	    -17.15730388	    -17.88298520	     -3.96935696	     27.71243541	     81.70649568	     -6.59164297	      4.74976899
      1.42000000	      0.68665558	      2.05226107	     91.12405321	      0.19702540	      0.63937324	      0.71025265	      2.28651798	     -0.32040552	    -18.43645009	     11.07510989	      0.19329713	     15.21665470	     15.75420340	      0.00000000	      1.70151456	      0.24060648	     -6.80452449	      4.88635254	      0.08528294	     13.26943887	     -2.13624161	      0.00000000	     -0.34254520	      0.12777222	     -6.46376877	     -0.63614069	      0.16993706	     -6.86775432	     -0.56276750	      0.31066538	     -6.86775432	     -0.39149491	      0.31066538	     -5.65579767	     -0.31808747	      0.26055312	     -5.25181212	     -0.19573033	      0.19791917	     -4.84782658	     -2.44676609	      1.44538495	    -35.94954276	      0.00000000	      0.00000000	     -3.73045639	      1.59367412	     27.70715829	     94.72993777	      6.36610991	    166.44081530	      0.08148614	      1.68525971	    -69.73801822	    -24.25118968	    -16.38998614	    -16.87787813	     -3.18158524	     27.27510258	     82.56518352	     -6.95582707	      5.00351301
      1.44000000	      1.36838950	      1.74088713	     91.39422444	      0.19453078	      0.63820705	      0.70856214	      2.53128949	      0.24800786	    -18.54666044	     11.24663909	      0.19629088	     15.48191028	     15.70326909	      0.00000000	      2.22806112	     -0.36506581	     -6.31026652	      5.41282186	      0.09447156	     14.10197847	     -2.49153781	      0.00000000	     -0.31485931	      0.28365598	     -6.33833905	     -0.58472523	      0.37726245	     -6.73448524	     -0.51728236	      0.68968114	     -6.73448524	     -0.35985271	      0.68968114	     -5.54604667	     -0.29237836	      0.57843127	     -5.14990047	     -0.17991061	      0.43938311	     -4.75375428	     -2.24900857	      3.20877314	    -35.25194027	      0.00000000	      0.00000000	     -2.37690136	      0.48762453	     27.60319879	    100.69263512	      5.56475579	    165.85156184	      0.08267281	      1.63035711	    -69.73009887	    -24.26000512	    -15.28136655	    -16.44798456	     -1.27062381	     26.88458867	     83.82010246	     -7.53839356	      4.87172832
      1.46000000	      1.73171242	      1.51595843	     91.69599205	      0.19297007	      0.63761046	      0.70705437	      2.76189876	      0.52592056	    -18.63785638	     11.55660782	      0.20170086	     15.81328879	     15.53446931	      0.00000000	      2.71937016	     -0.70353642	     -5.96704753	      6.01284711	      0.10494398	     14.71279811	     -2.62517758	      0.00000000	     -0.29255837	      0.38392517	     -6.05514738	     -0.54331015	      0.51062048	     -6.43359409	     -0.48064415	      0.93347567	     -6.43359409	     -0.33436496	      0.93347567	     -5.29825396	     -0.27166970	      0.78290021	     -4.91980725	     -0.16716785	      0.59470009	     -4.54136053	     -2.08971519	      4.34303834	    -33.67691318	      0.00000000	      0.00000000	     -0.88608703	      0.06492296	     26.61942310	    106.33047216	      4.23432334	    165.15697877	      0.08882347	      1.53453020	    -69.70180017	    -24.19292668	    -13.85666392	    -16.33630020	      0.68905319	     26.60545024	     84.72131772	     -8.24070349	      4.42756552
      1.48000000	      1.76700560	      1.16839008	     91.90866501	      0.19256401	      0.63738455	      0.70561124	      3.12540340	      0.53376827	    -18.54517300	     11.82367342	      0.20636203	     16.06130184	     15.28356653	      0.00000000	      3.38026847	     -0.76800611	     -5.88742842	      6.70425365	      0.11701130	     15.06587163	     -2.68201067	      0.00000000	     -0.23301181	      0.42189833	     -5.62580323	     -0.43272623	      0.56112478	     -5.97741593	     -0.38281510	      1.02580359	     -5.97741593	     -0.26630920	      1.02580359	     -4.92257783	     -0.21637477	      0.86033507	     -4.57096513	     -0.13314295	      0.65352051	     -4.21935242	     -1.66438006	      4.77259826	    -31.28902984	      0.00000000	      0.00000000	      0.48930833	      0.13483972	     24.39151767	    111.36165588	      2.39153958	    165.10883774	      0.10009531	      1.43534957	    -69.64824227	    -24.02774336	    -12.23170522	    -16.57586727	      3.37259156	     26.26253249	     85.43385270	     -9.35255020	      3.43775846
      1.50000000	      1.50966518	      0.90127841	     92.10438665	      0.19328019	      0.63772554	      0.70405641	      3.41269547	      0.32925515	    -18.22112019	     12.10501388	      0.21127235	     16.23744986	     14.62910930	      0.00000000	      3.81988151	     -0.61391330	     -6.34581452	      7.14731487	      0.12474418	     15.18325744	     -1.91083251	      0.00000000	     -0.17578444	      0.39720993	     -5.10205432	     -0.32644929	      0.52828921	     -5.42093271	     -0.28879626	      0.96577623	     -5.42093271	     -0.20090404	      0.96577623	     -4.46429753	     -0.16323344	      0.80999050	     -4.14541913	     -0.10044323	      0.61527819	     -3.82654074	     -1.25561071	      4.49331822	    -28.37609549	      0.00000000	      0.00000000	      1.76366096	      0.88739899	     21.60342366	    115.84890879	      0.17739527	    165.72246012	      0.11848376	      1.32453831	    -69.54639312	    -23.66933098	    -10.33939556	    -17.40065163	      8.45014419	     25.76654827	     84.30142354	    -11.34241415	      1.83728906
      1.52000000	      0.95827743	      0.55593135	     92.39851659	      0.19475603	      0.63819721	      0.70206424	      3.75398299	     -0.19080813	    -18.27316340	     12.44570488	      0.21721853	     16.53313162	     14.31787787	      0.00000000	      4.33869067	     -0.18542835	     -6.51795361	      7.65082601	      0.13353210	     15.04364424	     -1.50604701	      0.00000000	     -0.10513044	      0.30145494	     -4.56203637	     -0.19523775	      0.40093507	     -4.84716364	     -0.17271881	      0.73295754	     -4.84716364	     -0.12015358	      0.73295754	     -3.99178182	     -0.09762413	      0.61472692	     -3.70665455	     -0.06007154	      0.46695370	     -3.42152728	     -0.75093624	      3.41011859	    -25.37267768	      0.00000000	      0.00000000	      3.14128026	      1.94688212	     17.39433688	    119.87617451	     -2.43047698	    167.46854037	      0.14755852	      1.38751096	    -69.32038829	    -22.94247185	     -9.25584244	    -17.68342595	      8.51949808	     26.33869844	     84.46202609	    -11.92537019	      1.18295433
      1.54000000	      0.44566631	      0.21570054	     92.65379537	      0.19638534	      0.63877060	      0.69954371	      4.05297698	     -0.64210864	    -18.17831290	     12.74432991	      0.22243052	     16.77356824	     13.76290095	      0.00000000	      4.75265205	      0.16189525	     -7.21108082	      8.06503227	      0.14076137	     15.07111387	     -0.31569909	      0.00000000	     -0.04278932	      0.19138427	     -3.97645966	     -0.07946405	      0.25454108	     -4.22498839	     -0.07029858	      0.46533171	     -4.22498839	     -0.04890392	      0.46533171	     -3.47940221	     -0.03973416	      0.39027080	     -3.23087348	     -0.02444982	      0.29645423	     -2.98234475	     -0.30563984	      2.16497710	    -22.11587572	      0.00000000	      0.00000000	      4.57420439	      3.31484190	     12.48842624	    123.75914090	     -5.45822333	    173.12409575	      0.18673962	      1.53059851	    -68.71091935	    -20.66356456	     -8.07980188	    -18.02906967	      9.00273710	     26.95906776	     85.07697734	    -12.31443142	      0.86531178
